<?xml version="1.0" encoding="iso-8859-1"?>
<!-- Uploaded to: SVG Repo, www.svgrepo.com, Generator: SVG Repo Mixer Tools -->
<!DOCTYPE svg PUBLIC "-//W3C//DTD SVG 1.1//EN" "http://www.w3.org/Graphics/SVG/1.1/DTD/svg11.dtd">
<svg fill="#000000" version="1.1" id="Capa_1" xmlns="http://www.w3.org/2000/svg" xmlns:xlink="http://www.w3.org/1999/xlink" 
	 width="800px" height="800px" viewBox="0 0 56.48 56.48" xml:space="preserve"
	>
<g>
	<path d="M55.026,9.939H1.454C0.65,9.939,0,10.59,0,11.393v33.695c0,0.803,0.65,1.454,1.454,1.454h53.572
		c0.804,0,1.454-0.651,1.454-1.454V11.393C56.48,10.59,55.83,9.939,55.026,9.939z M21.804,33.688l-0.002,0.788h-2.41h-2.41
		l-0.002-0.788l-0.002-0.787h0.494c0.28,0,0.493-0.004,0.493-0.011c0-0.006-0.499-1.42-0.586-1.659l-0.02-0.056l-2.435,0.002
		l-2.435,0.002l-0.304,0.857l-0.303,0.857l0.526,0.003l0.526,0.003v0.79v0.79h-2.252H8.43v-0.79V32.9h0.536h0.536l0.043-0.123
		c0.193-0.539,3.303-9.331,3.303-9.337c0-0.005-0.301-0.01-0.668-0.011l-0.668-0.003v-0.785v-0.786l2.684-0.003l2.684-0.002
		l1.959,5.522l1.959,5.521l0.505,0.004l0.505,0.003L21.804,33.688z M35.43,34.166c-0.627,0.303-1.293,0.48-2.013,0.536
		c-0.144,0.013-0.643,0.011-0.796-0.001c-1.205-0.091-2.346-0.568-3.253-1.363c-0.056-0.05-0.108-0.1-0.12-0.111
		c-0.01-0.012-0.029-0.028-0.044-0.038l-0.024-0.02l-0.111,0.124c-0.337,0.372-0.798,0.711-1.295,0.95
		c-0.805,0.388-1.694,0.531-2.625,0.425c-1.268-0.144-2.223-0.755-2.697-1.724c-0.209-0.429-0.331-0.927-0.364-1.496
		c-0.006-0.103-0.01-1.166-0.01-2.829v-2.666h-0.944h-0.944l0.002-0.989l0.002-0.989l0.941-0.003l0.941-0.002l0.002-1.062
		l0.002-1.062h1.289h1.289l0.002,1.062l0.002,1.062l1.43,0.002l1.43,0.003l0.002,0.989l0.002,0.989h-1.433h-1.433v2.551
		c0,2.78-0.002,2.661,0.054,2.909c0.113,0.506,0.413,0.91,0.827,1.118c0.356,0.179,0.785,0.206,1.279,0.081
		c0.375-0.095,0.769-0.299,1.085-0.563c0.106-0.09,0.235-0.211,0.235-0.224c0-0.006-0.034-0.077-0.076-0.16
		c-0.325-0.644-0.515-1.313-0.582-2.041c-0.02-0.214-0.022-0.698-0.005-0.892c0.072-0.81,0.271-1.494,0.637-2.19
		c0.603-1.146,1.635-2.076,2.833-2.556c0.136-0.054,0.356-0.134,0.36-0.13c0.002,0.002-0.017,0.035-0.041,0.075
		c-0.357,0.594-0.666,1.816-0.721,2.869L30.533,27l-0.064,0.092c-0.332,0.469-0.543,1.023-0.621,1.625
		c-0.024,0.189-0.024,0.672,0,0.862c0.082,0.644,0.311,1.216,0.685,1.714c0.474,0.629,1.153,1.066,1.89,1.213
		c0.242,0.049,0.301,0.055,0.613,0.053c0.253,0,0.311-0.002,0.426-0.021c0.422-0.065,0.768-0.19,1.137-0.409
		c0.065-0.039,0.129-0.08,0.143-0.09l0.023-0.02l-0.053-0.021c-0.109-0.047-0.488-0.241-0.613-0.315
		c-0.742-0.445-1.35-1.027-1.822-1.748c-1.067-1.625-1.2-3.715-0.348-5.463c0.054-0.111,0.133-0.265,0.178-0.34
		c0.086-0.15,0.303-0.483,0.332-0.509c0.045-0.039,0.714-0.054,1.058-0.023c0.847,0.075,1.615,0.319,2.335,0.739
		c1.262,0.737,2.191,1.946,2.57,3.345c0.145,0.535,0.199,0.99,0.189,1.567c-0.008,0.486-0.054,0.827-0.17,1.283
		C38.018,32.112,36.917,33.447,35.43,34.166z M47.977,31.569c-0.282,1.422-1.4,2.461-3.127,2.907
		c-0.711,0.185-1.443,0.256-2.321,0.226c-1.302-0.047-2.501-0.308-3.621-0.783c-0.164-0.069-0.683-0.321-0.715-0.35
		c-0.015-0.013-0.007-0.027,0.08-0.156c0.304-0.457,0.677-1.092,0.92-1.563c0.063-0.123,0.116-0.224,0.118-0.224
		s0.059,0.022,0.125,0.05c0.861,0.344,1.811,0.599,2.658,0.713c0.367,0.049,0.496,0.057,0.914,0.057
		c0.324,0,0.418-0.002,0.532-0.016c0.435-0.056,0.775-0.15,1.077-0.301c0.395-0.199,0.637-0.451,0.721-0.752
		c0.026-0.093,0.024-0.382-0.002-0.508c-0.072-0.329-0.272-0.568-0.688-0.818c-0.13-0.078-0.376-0.201-0.556-0.278
		c-0.289-0.124-0.528-0.207-1.343-0.47c-1.903-0.613-2.86-1.18-3.411-2.014c-0.32-0.481-0.484-1.098-0.484-1.813
		c0-0.787,0.234-1.479,0.697-2.059c0.106-0.134,0.379-0.407,0.516-0.518c0.549-0.444,1.25-0.767,2.07-0.951
		c1.092-0.246,2.289-0.235,3.875,0.032c0.551,0.093,1.358,0.264,1.369,0.289c0.004,0.012-0.131,3.454-0.137,3.46
		c-0.001,0.001-1.951-0.034-1.979-0.036c-0.002,0-0.002-0.388,0.002-0.861l0.008-0.861l-0.109-0.021
		c-0.568-0.106-1.373-0.125-1.953-0.044c-0.824,0.115-1.418,0.43-1.641,0.872c-0.145,0.287-0.148,0.599-0.012,0.868
		c0.261,0.516,1.078,0.977,2.606,1.47c1.164,0.376,1.937,0.708,2.494,1.074c0.665,0.437,1.056,0.929,1.252,1.579
		C48.07,30.285,48.094,30.98,47.977,31.569z M35.997,27.845c0.244,0.625,0.306,1.343,0.169,2.013
		c-0.018,0.09-0.042,0.198-0.055,0.243c-0.012,0.045-0.025,0.082-0.031,0.082c-0.005,0.002-0.061-0.016-0.124-0.037
		c-0.39-0.139-0.712-0.324-1.024-0.592c-0.11-0.092-0.334-0.321-0.424-0.438c-0.42-0.527-0.664-1.123-0.752-1.833
		c-0.017-0.135-0.017-0.643,0-0.776c0.033-0.265,0.117-0.651,0.142-0.651c0.007,0,0.057,0.016,0.11,0.034
		C34.913,26.206,35.633,26.913,35.997,27.845z M15.812,26.817c0.467,1.315,0.849,2.396,0.849,2.397c0,0.004-0.783,0.006-1.74,0.006
		c-1.653,0-1.74-0.002-1.733-0.018c0.003-0.01,0.39-1.102,0.859-2.427c0.469-1.326,0.858-2.423,0.865-2.439l0.012-0.028l0.02,0.058
		C14.954,24.398,15.345,25.501,15.812,26.817z"/>
</g>
</svg>