<svg width="65" height="65" viewBox="0 0 65 65" fill="none" xmlns="http://www.w3.org/2000/svg">
<path d="M18.8606 46.2285C18.9126 46.3505 18.9526 46.4765 19.0146 46.5945C23.4446 55.0065 34.4906 55.8265 40.5266 51.5025C41.9187 50.6356 43.1188 49.4934 44.0534 48.1459C44.988 46.7984 45.6374 45.2741 45.9616 43.6665C46.2858 42.059 46.278 40.4022 45.9387 38.7978C45.5995 37.1933 44.9358 35.6752 43.9886 34.3365C43.1911 33.123 42.3103 31.9662 41.3526 30.8745C39.5906 28.7405 37.8426 26.5945 36.0806 24.4605C35.3486 23.5745 34.5466 22.7905 33.2486 23.0945C32.7524 23.1726 32.2866 23.3834 31.9004 23.7046C31.5142 24.0258 31.2221 24.4454 31.0548 24.919C30.8876 25.3927 30.8515 25.9027 30.9504 26.3952C31.0493 26.8876 31.2795 27.3442 31.6166 27.7165C33.3926 29.9285 35.2546 32.0705 37.0166 34.2885C38.0911 35.4578 38.7804 36.9291 38.9911 38.5031C39.2018 40.077 38.9238 41.6778 38.1946 43.0885C37.3109 44.9872 35.8963 46.5895 34.1218 47.7018C32.3473 48.814 30.2887 49.3888 28.1946 49.3565C24.7963 49.5564 21.4522 48.4358 18.8606 46.2285Z" fill="#ffffff"/>
<path d="M45.5086 20.1865C45.6686 19.6905 45.3766 19.4465 45.2266 19.1685C43.2955 15.9313 40.2131 13.5429 36.5963 12.4812C32.9795 11.4195 29.0951 11.7628 25.7206 13.4425C19.1206 16.7025 15.5206 24.1465 20.4466 31.7365C23.0021 35.3075 25.7634 38.7267 28.7166 41.9765C28.8948 42.1805 29.1121 42.3468 29.3557 42.4653C29.5992 42.5838 29.8641 42.6522 30.1346 42.6665C30.7111 42.7439 31.2972 42.6377 31.8099 42.363C32.3225 42.0884 32.7357 41.6592 32.9906 41.1365C33.2724 40.666 33.3912 40.1157 33.3286 39.5708C33.2661 39.026 33.0257 38.5169 32.6446 38.1225C30.8926 36.0205 29.1066 33.9465 27.4146 31.7985C25.991 30.1725 25.2613 28.0534 25.3821 25.8957C25.5028 23.7379 26.4644 21.7134 28.0606 20.2565C29.6429 18.6419 31.6457 17.5025 33.8421 16.9674C36.0386 16.4322 38.3409 16.5227 40.4886 17.2285C42.4101 17.715 44.152 18.7414 45.5086 20.1865Z" fill="#ffffff"/>
</svg>
